<svg xmlns="http://www.w3.org/2000/svg" version="1.1" xmlns:xlink="http://www.w3.org/1999/xlink" xmlns:svgjs="http://svgjs.dev/svgjs" width="128" height="128" viewBox="0 0 128 128"><g transform="matrix(0.8046875,0,0,0.8046875,12.23195509010111,11.817059204101561)"><svg viewBox="0 0 95 96" data-background-color="#ffffff" preserveAspectRatio="xMidYMid meet" height="129" width="128" xmlns="http://www.w3.org/2000/svg" xmlns:xlink="http://www.w3.org/1999/xlink"><g id="tight-bounds" transform="matrix(1,0,0,1,0.24722588777082422,0.25950000000000273)"><svg viewBox="0 0 94.50554822445834 95.481" height="95.481" width="94.50554822445834"><g><svg viewBox="0 0 94.50554822445834 95.481" height="95.481" width="94.50554822445834"><g><svg viewBox="0 0 94.50554822445834 95.481" height="95.481" width="94.50554822445834"><g id="textblocktransform"><svg viewBox="0 0 94.50554822445834 95.481" height="95.481" width="94.50554822445834" id="textblock"><g><svg viewBox="0 0 94.50554822445834 95.481" height="95.481" width="94.50554822445834"><g><svg viewBox="0 0 94.50554822445834 95.481" height="95.481" width="94.50554822445834"><g><svg xmlns="http://www.w3.org/2000/svg" xmlns:xlink="http://www.w3.org/1999/xlink" version="1.1" x="0" y="0" viewBox="0.9 0.5000001825012079 70.3 71.02561094146249" enable-background="new 0 0 72 72" xml:space="preserve" height="95.481" width="94.50554822445834" class="icon-icon-0" data-fill-palette-color="accent" id="icon-0"><g fill="#4b0082" data-fill-palette-color="accent"><g fill="#4b0082" data-fill-palette-color="accent"><g fill="#4b0082" data-fill-palette-color="accent"><circle fill="#4b0082" cx="22.5" cy="6.9" r="6.4" data-fill-palette-color="accent"></circle><path fill="#4b0082" d="M43.4 32H36.8C36.5 32 36.2 31.8 36.2 31.4 35.4 23.5 30.2 17.3 23.6 16.4 23.2 16.3 22.9 16.7 22.9 17.1L23.7 31.3C23.7 31.7 23.4 32.1 23 32.1H21.2C20.8 32.1 20.5 31.7 20.5 31.3L21.3 17C21.3 16.6 21 16.3 20.6 16.3 13.9 17 8.5 23.3 7.7 31.3 7.7 31.6 7.4 31.9 7.1 31.9H1.5C1.2 31.9 0.9 32.2 0.9 32.5V35.8C0.9 36.1 1.2 36.4 1.5 36.4H3C3.3 36.4 3.6 36.6 3.6 37L6.6 70.8C6.6 71.1 6.9 71.4 7.2 71.4H37.7C38 71.4 38.3 71.2 38.3 70.8L41.3 37C41.3 36.7 41.6 36.4 41.9 36.4H43.4C43.7 36.4 44 36.1 44 35.8V32.5C44.1 32.2 43.8 32 43.4 32M15.3 31.3C15.3 31.6 15 31.9 14.7 31.9H13.4C13 31.9 12.7 31.5 12.8 31.2 13 29.8 13.5 28.4 14.2 27.2 14.5 26.6 15.4 26.9 15.4 27.5V31.3zM30.6 32H29.3C29 32 28.7 31.7 28.7 31.4V27.6C28.7 27 29.6 26.7 29.9 27.3 30.6 28.5 31 29.8 31.3 31.3 31.3 31.6 31 32 30.6 32" data-fill-palette-color="accent"></path></g><circle fill="#4b0082" cx="61" cy="9.6" r="5.5" data-fill-palette-color="accent"></circle><path fill="#4b0082" d="M62.5 18.9C57.7 18.9 53.9 22.8 53.9 27.5V42.9C53.9 43.5 53.4 43.9 52.9 43.9H45.1C44.5 43.9 44.1 44.4 44.1 44.9V67.9C44.1 69.9 45.7 71.5 47.7 71.5S51.3 69.9 51.3 67.9V52.2C51.3 51.6 51.8 51.2 52.3 51.2H70.2C70.8 51.2 71.2 50.7 71.2 50.2V27.5C71.1 22.7 67.3 18.9 62.5 18.9" data-fill-palette-color="accent"></path></g><path fill="#4b0082" d="M69.1 54.8H58.4C57.4 54.8 56.5 55.5 56.3 56.5 56.1 57.8 57.1 58.8 58.3 58.8H61.5C61.6 58.8 61.7 58.9 61.7 59V69.4C61.7 70.4 62.4 71.3 63.4 71.5 64.7 71.7 65.7 70.7 65.7 69.5V59C65.7 58.9 65.8 58.8 65.9 58.8H69C70 58.8 70.9 58.1 71.1 57.1 71.3 55.8 70.4 54.8 69.1 54.8" data-fill-palette-color="accent"></path></g></svg></g></svg></g></svg></g></svg></g></svg></g><g></g></svg></g><defs></defs></svg><rect width="94.50554822445834" height="95.481" fill="none" stroke="none" visibility="hidden"></rect></g></svg></g></svg>